# xmcd
#
# Track frame offsets: 
#        150
#        12825
#        26086
#        38654
#        51732
#        65025
#        76638
#        89322
#        102780
#        116740
#        132633
#        145951
#        158965
#        172291
#        186749
#        201029
#        215277
#        228276
#        241917
#        255270
#        268360
#        281911
#
# Disc length: 3935 seconds
#
# Revision: 0
# Processed by: cddbd v1.5.2PL0 Copyright (c) Steve Scherf et al.
# Submitted via: ExactAudioCopyFreeDBPlugin 1.0
#
DISCID=4d0f5d16
DTITLE=Walter Roland - Complete Recorded Works Vol. 2 (1934-1935)
DYEAR=1994
DGENRE=Blues
TTITLE0=C.W.A. Blues
TTITLE1=You Gonna Want Me
TTITLE2=Dice's Blues
TTITLE3=Collector Man Blues
TTITLE4=Early In The Monring No. 2
TTITLE5=Big Mama
TTITLE6=Every Morning Blues
TTITLE7=Screw Worm
TTITLE8=Bad Dream Blues
TTITLE9=I'm Gonna Shave You Dry
TTITLE10=Money Taker Woman
TTITLE11=Schoolboy Blues
TTITLE12=Schoolboy Blues
TTITLE13=Talkin' Low Blues
TTITLE14=O.B.D. Blues
TTITLE15=Club Meeting Blues
TTITLE16=Cold Blooded Murder
TTITLE17=Sail On Little Girl No. 2
TTITLE18=S.O.L. Blues
TTITLE19=Worn Out Man Blues
TTITLE20=45 Pistol Blues
TTITLE21=Penniless Blues
EXTD=
EXTT0=
EXTT1=
EXTT2=
EXTT3=
EXTT4=
EXTT5=
EXTT6=
EXTT7=
EXTT8=
EXTT9=
EXTT10=
EXTT11=
EXTT12=
EXTT13=
EXTT14=
EXTT15=
EXTT16=
EXTT17=
EXTT18=
EXTT19=
EXTT20=
EXTT21=
PLAYORDER=
